<?xml version="1.0" encoding="UTF-8"?>
<svg width="1070px" height="472px" viewBox="0 0 1070 472" version="1.1" xmlns="http://www.w3.org/2000/svg" xmlns:xlink="http://www.w3.org/1999/xlink">
    <!-- Generator: Sketch 50.2 (55047) - http://www.bohemiancoding.com/sketch -->
    <title>irish_traveler_drawings</title>
    <desc>Created with Sketch.</desc>
    <defs></defs>
    <g id="Page-1" stroke="none" stroke-width="1" fill="none" fill-rule="evenodd">
        <path d="M325,392 L415,260" id="Line-6" stroke="#000000" stroke-width="2" stroke-linecap="square"></path>
        <path d="M385,394 L475,260" id="Line-7" stroke="#000000" stroke-width="2" stroke-linecap="square"></path>
        <path d="M566.5,395.5 L657,259" id="Line-8" stroke="#000000" stroke-width="2" stroke-linecap="square"></path>
        <path d="M25,361 L25,392" id="Line-3" stroke="#D0021B" stroke-width="2" stroke-linecap="square"></path>
        <path d="M145,361 L145,392" id="Line-3" stroke="#D0021B" stroke-width="2" stroke-linecap="square"></path>
        <path d="M265,361 L265,392" id="Line-3" stroke="#D0021B" stroke-width="2" stroke-linecap="square"></path>
        <path d="M445,361 L445,392" id="Line-3" stroke="#D0021B" stroke-width="2" stroke-linecap="square"></path>
        <path d="M505,361 L505,392" id="Line-3" stroke="#D0021B" stroke-width="2" stroke-linecap="square"></path>
        <path d="M625,361 L625,392" id="Line-3" stroke="#D0021B" stroke-width="2" stroke-linecap="square"></path>
        <path d="M625,361 L625,392" id="Line-3" stroke="#D0021B" stroke-width="2" stroke-linecap="square"></path>
        <path d="M745,361 L745,392" id="Line-3" stroke="#D0021B" stroke-width="2" stroke-linecap="square"></path>
        <path d="M865,361 L865,392" id="Line-3" stroke="#D0021B" stroke-width="2" stroke-linecap="square"></path>
        <path d="M985,361 L985,392" id="Line-3" stroke="#D0021B" stroke-width="2" stroke-linecap="square"></path>
        <polyline id="Line" stroke="#000000" stroke-width="2" stroke-linecap="square" points="535 32.0040981 535 1.5 595 1.5 595 32.0040981"></polyline>
        <polyline id="Line" stroke="#000000" stroke-width="2" stroke-linecap="square" transform="translate(505.000000, 95.252049) rotate(-180.000000) translate(-505.000000, -95.252049) " points="475 110.504098 475 80 535 80 535 110.504098"></polyline>
        <path d="M985,359.5 L25,359.5" id="Line-4" stroke="#D0021B" stroke-width="2" stroke-linecap="square"></path>
        <path d="M565.5,292 L565.5,358.5" id="Line-5" stroke="#D0021B" stroke-width="2" stroke-linecap="square"></path>
        <polyline id="Line" stroke="#000000" stroke-width="2" stroke-linecap="square" transform="translate(565.000000, 275.252049) rotate(-180.000000) translate(-565.000000, -275.252049) " points="535 290.504098 535 260 595 260 595 290.504098"></polyline>
        <polyline id="Line" stroke="#000000" stroke-width="2" stroke-linecap="square" transform="translate(56.000000, 455.252049) rotate(-180.000000) translate(-56.000000, -455.252049) " points="26 470.504098 26 440 86 440 86 470.504098"></polyline>
        <polyline id="Line" stroke="#000000" stroke-width="2" stroke-linecap="square" transform="translate(176.000000, 455.252049) rotate(-180.000000) translate(-176.000000, -455.252049) " points="146 470.504098 146 440 206 440 206 470.504098"></polyline>
        <polyline id="Line" stroke="#000000" stroke-width="2" stroke-linecap="square" transform="translate(296.000000, 455.252049) rotate(-180.000000) translate(-296.000000, -455.252049) " points="266 470.504098 266 440 326 440 326 470.504098"></polyline>
        <polyline id="Line" stroke="#000000" stroke-width="2" stroke-linecap="square" transform="translate(416.000000, 455.252049) rotate(-180.000000) translate(-416.000000, -455.252049) " points="386 470.504098 386 440 446 440 446 470.504098"></polyline>
        <polyline id="Line" stroke="#000000" stroke-width="2" stroke-linecap="square" transform="translate(536.000000, 455.252049) rotate(-180.000000) translate(-536.000000, -455.252049) " points="506 470.504098 506 440 566 440 566 470.504098"></polyline>
        <polyline id="Line" stroke="#000000" stroke-width="2" stroke-linecap="square" transform="translate(656.000000, 455.252049) rotate(-180.000000) translate(-656.000000, -455.252049) " points="626 470.504098 626 440 686 440 686 470.504098"></polyline>
        <polyline id="Line" stroke="#000000" stroke-width="2" stroke-linecap="square" transform="translate(776.000000, 455.252049) rotate(-180.000000) translate(-776.000000, -455.252049) " points="746 470.504098 746 440 806 440 806 470.504098"></polyline>
        <polyline id="Line" stroke="#000000" stroke-width="2" stroke-linecap="square" transform="translate(896.000000, 455.252049) rotate(-180.000000) translate(-896.000000, -455.252049) " points="866 470.504098 866 440 926 440 926 470.504098"></polyline>
        <polyline id="Line" stroke="#000000" stroke-width="2" stroke-linecap="square" transform="translate(1016.000000, 455.252049) rotate(-180.000000) translate(-1016.000000, -455.252049) " points="986 470.504098 986 440 1046 440 1046 470.504098"></polyline>
        <polyline id="Line" stroke="#000000" stroke-width="2" stroke-linecap="square" points="595 212.504098 595 182 655 182 655 212.504098"></polyline>
        <path d="M505,111 L475,182" id="Line-2" stroke="#000000" stroke-width="2" stroke-linecap="square"></path>
        <path d="M595,80 L626,181" id="Line-2" stroke="#000000" stroke-width="2" stroke-linecap="square"></path>
        <g id="Group" transform="translate(415.000000, 182.000000)" stroke="#000000" stroke-linecap="square" stroke-width="2">
            <polyline id="Line" points="1.63109569e-15 30.5040981 0 0 60 0 60 30.5040981"></polyline>
            <polyline id="Line" points="60 30.5040981 60 0 120 0 120 30.5040981"></polyline>
        </g>
        <circle id="Oval" fill="#F5A623" cx="475" cy="56" r="25"></circle>
        <circle id="Oval" fill="#246F74" cx="595" cy="236" r="25"></circle>
        <circle id="Oval-Copy" fill="#246F74" cx="145" cy="416" r="25"></circle>
        <circle id="Oval-Copy-2" fill="#246F74" cx="325" cy="416" r="25"></circle>
        <circle id="Oval-Copy-3" fill="#246F74" cx="445" cy="416" r="25"></circle>
        <circle id="Oval-Copy-4" fill="#246F74" cx="565" cy="416" r="25"></circle>
        <circle id="Oval-Copy-6" fill="#246F74" cx="745" cy="416" r="25"></circle>
        <circle id="Oval-Copy-7" fill="#246F74" cx="865" cy="416" r="25"></circle>
        <circle id="Oval-Copy-8" stroke="#000000" stroke-width="5" cx="1045" cy="416" r="22.5"></circle>
        <circle id="Oval-Copy-5" fill="#F5A623" cx="685" cy="416" r="25"></circle>
        <circle id="Oval-Copy-9" fill="#D0021B" cx="85" cy="416" r="25"></circle>
        <polygon id="Triangle" fill="#246F74" points="535 31 560 81 510 81"></polygon>
        <polygon id="Triangle" fill="#246F74" points="415 211 440 261 390 261"></polygon>
        <polygon id="Triangle" fill="#246F74" points="265 391 290 441 240 441"></polygon>
        <polygon id="Triangle-Copy-8" fill="#7ED321" points="205 391 230 441 180 441"></polygon>
        <polygon id="Triangle-Copy" fill="#246F74" points="25 391 50 441 0 441"></polygon>
        <polygon id="Triangle-Copy-2" fill="#246F74" points="385 391 410 441 360 441"></polygon>
        <polygon id="Triangle-Copy-3" fill="#246F74" points="625 391 650 441 600 441"></polygon>
        <polygon id="Triangle-Copy-6" fill="#D0021B" points="805 391 830 441 780 441"></polygon>
        <path d="M925,396.59017 L904.045085,438.5 L945.954915,438.5 L925,396.59017 Z" id="Triangle-Copy-7" stroke="#000000" stroke-width="5"></path>
        <polygon id="Triangle-Copy-4" fill="#246F74" points="505 391 530 441 480 441"></polygon>
        <polygon id="Triangle-Copy-5" fill="#246F74" points="985 391 1010 441 960 441"></polygon>
        <polygon id="Triangle" fill="#246F74" points="475 211 500 261 450 261"></polygon>
        <polygon id="Triangle" fill="#246F74" points="535 211 560 261 510 261"></polygon>
        <polygon id="Triangle" fill="#246F74" points="655 211 680 261 630 261"></polygon>
        <polygon id="Triangle" fill="#246F74" points="595 31 620 81 570 81"></polygon>
    </g>
</svg>