<?xml version="1.0" encoding="UTF-8"?>
<svg width="1010px" height="292px" viewBox="0 0 1010 292" version="1.1" xmlns="http://www.w3.org/2000/svg" xmlns:xlink="http://www.w3.org/1999/xlink">
    <!-- Generator: Sketch 50.2 (55047) - http://www.bohemiancoding.com/sketch -->
    <title>irish_traveler_drawings</title>
    <desc>Created with Sketch.</desc>
    <defs></defs>
    <g id="Page-2" stroke="none" stroke-width="1" fill="none" fill-rule="evenodd">
        <path d="M474,81 L446.5,210.5" id="Line-5" stroke="#000000" stroke-width="2" stroke-linecap="square"></path>
        <path d="M565.5,111.5 L565.5,179.5" id="Line-2" stroke="#D0021B" stroke-width="2" stroke-linecap="square"></path>
        <path d="M25,181 L25,212" id="Line-3" stroke="#D0021B" stroke-width="2" stroke-linecap="square"></path>
        <path d="M205,181 L205,212" id="Line-3" stroke="#D0021B" stroke-width="2" stroke-linecap="square"></path>
        <path d="M265,181 L265,212" id="Line-3" stroke="#D0021B" stroke-width="2" stroke-linecap="square"></path>
        <path d="M385,181 L385,212" id="Line-3" stroke="#D0021B" stroke-width="2" stroke-linecap="square"></path>
        <path d="M505,181 L505,212" id="Line-3" stroke="#D0021B" stroke-width="2" stroke-linecap="square"></path>
        <path d="M625,181 L625,212" id="Line-3" stroke="#D0021B" stroke-width="2" stroke-linecap="square"></path>
        <path d="M625,181 L625,212" id="Line-3" stroke="#D0021B" stroke-width="2" stroke-linecap="square"></path>
        <path d="M745,181 L745,212" id="Line-3" stroke="#D0021B" stroke-width="2" stroke-linecap="square"></path>
        <path d="M865,181 L865,212" id="Line-3" stroke="#D0021B" stroke-width="2" stroke-linecap="square"></path>
        <path d="M985,181 L985,212" id="Line-3" stroke="#D0021B" stroke-width="2" stroke-linecap="square"></path>
        <path d="M925,181 L925,212" id="Line-3" stroke="#D0021B" stroke-width="2" stroke-linecap="square"></path>
        <path d="M805,181 L805,212" id="Line-3" stroke="#D0021B" stroke-width="2" stroke-linecap="square"></path>
        <polyline id="Line" stroke="#000000" stroke-width="2" stroke-linecap="square" points="475 32.0040981 475 1.5 535 1.5 535 32.0040981"></polyline>
        <polyline id="Line" stroke="#000000" stroke-width="2" stroke-linecap="square" points="85 212.004098 85 110.504098 145 110.504098 145 212.004098"></polyline>
        <polyline id="Line" stroke="#000000" stroke-width="2" stroke-linecap="square" transform="translate(565.000000, 95.252049) rotate(-180.000000) translate(-565.000000, -95.252049) " points="535 110.504098 535 80 595 80 595 110.504098"></polyline>
        <path d="M985,179.5 L25,179.5" id="Line-4" stroke="#D0021B" stroke-width="2" stroke-linecap="square"></path>
        <polyline id="Line" stroke="#000000" stroke-width="2" stroke-linecap="square" transform="translate(56.000000, 275.252049) rotate(-180.000000) translate(-56.000000, -275.252049) " points="26 290.504098 26 260 86 260 86 290.504098"></polyline>
        <polyline id="Line" stroke="#000000" stroke-width="2" stroke-linecap="square" transform="translate(176.000000, 275.252049) rotate(-180.000000) translate(-176.000000, -275.252049) " points="146 290.504098 146 260 206 260 206 290.504098"></polyline>
        <polyline id="Line" stroke="#000000" stroke-width="2" stroke-linecap="square" transform="translate(296.000000, 275.252049) rotate(-180.000000) translate(-296.000000, -275.252049) " points="266 290.504098 266 260 326 260 326 290.504098"></polyline>
        <polyline id="Line" stroke="#000000" stroke-width="2" stroke-linecap="square" transform="translate(416.000000, 275.252049) rotate(-180.000000) translate(-416.000000, -275.252049) " points="386 290.504098 386 260 446 260 446 290.504098"></polyline>
        <polyline id="Line" stroke="#000000" stroke-width="2" stroke-linecap="square" transform="translate(536.000000, 275.252049) rotate(-180.000000) translate(-536.000000, -275.252049) " points="506 290.504098 506 260 566 260 566 290.504098"></polyline>
        <polyline id="Line" stroke="#000000" stroke-width="2" stroke-linecap="square" transform="translate(656.000000, 275.252049) rotate(-180.000000) translate(-656.000000, -275.252049) " points="626 290.504098 626 260 686 260 686 290.504098"></polyline>
        <circle id="Oval" fill="#F5A623" cx="595" cy="56" r="25"></circle>
        <circle id="Oval-Copy" fill="#A4709A" cx="145" cy="236" r="25"></circle>
        <circle id="Oval-Copy-2" fill="#D0021B" cx="325" cy="236" r="25"></circle>
        <circle id="Oval-Copy-3" fill="#246F74" cx="445" cy="236" r="25"></circle>
        <circle id="Oval-Copy-4" fill="#246F74" cx="505" cy="236" r="25"></circle>
        <circle id="Oval-Copy-7" fill="#246F74" cx="865" cy="236" r="25"></circle>
        <circle id="Oval-Copy-8" fill="#246F74" cx="925" cy="236" r="25"></circle>
        <circle id="Oval-Copy-10" fill="#246F74" cx="985" cy="236" r="25"></circle>
        <circle id="Oval-Copy-5" fill="#246F74" cx="625" cy="236" r="25"></circle>
        <circle id="Oval-Copy-9" fill="#A4709A" cx="85" cy="236" r="25"></circle>
        <polygon id="Triangle" fill="#246F74" points="475 31 500 81 450 81"></polygon>
        <polygon id="Triangle" fill="#246F74" points="265 211 290 261 240 261"></polygon>
        <polygon id="Triangle-Copy-8" fill="#246F74" points="205 211 230 261 180 261"></polygon>
        <polygon id="Triangle-Copy" fill="#246F74" points="25 211 50 261 0 261"></polygon>
        <polygon id="Triangle-Copy-2" fill="#246F74" points="385 211 410 261 360 261"></polygon>
        <polygon id="Triangle-Copy-3" fill="#D0021B" points="685 211 710 261 660 261"></polygon>
        <polygon id="Triangle-Copy-4" fill="#D0021B" points="565 211 590 261 540 261"></polygon>
        <polygon id="Triangle-Copy-5" fill="#246F74" points="805 211 830 261 780 261"></polygon>
        <polygon id="Triangle-Copy-6" fill="#246F74" points="745 211 770 261 720 261"></polygon>
        <polygon id="Triangle" fill="#246F74" points="535 31 560 81 510 81"></polygon>
    </g>
</svg>